<mxfile host="Electron" agent="Mozilla/5.0 (Windows NT 10.0; Win64; x64) AppleWebKit/537.36 (KHTML, like Gecko) draw.io/26.2.2 Chrome/134.0.6998.178 Electron/35.1.2 Safari/537.36" version="26.2.2" pages="2">
  <diagram name="Hotel Management Activity Diagram" id="H7WJ8yFdEbnJoJ8yICzo">
    <mxGraphModel dx="1160" dy="704" grid="1" gridSize="10" guides="1" tooltips="1" connect="1" arrows="1" fold="1" page="1" pageScale="1" pageWidth="827" pageHeight="1169" math="0" shadow="0">
      <root>
        <mxCell id="0" />
        <mxCell id="1" parent="0" />
        <mxCell id="start" value="" style="ellipse;whiteSpace=wrap;html=1;aspect=fixed;fillColor=#000000;" parent="1" vertex="1">
          <mxGeometry x="260" y="20" width="30" height="30" as="geometry" />
        </mxCell>
        <mxCell id="search" value="Search for Rooms" style="rounded=1;whiteSpace=wrap;html=1;" parent="1" vertex="1">
          <mxGeometry x="220" y="70" width="110" height="40" as="geometry" />
        </mxCell>
        <mxCell id="e1" style="edgeStyle=orthogonalEdgeStyle;endArrow=block;" parent="1" source="start" target="search" edge="1">
          <mxGeometry relative="1" as="geometry" />
        </mxCell>
        <mxCell id="select" value="Select the Room" style="rounded=1;whiteSpace=wrap;html=1;" parent="1" vertex="1">
          <mxGeometry x="220" y="120" width="110" height="40" as="geometry" />
        </mxCell>
        <mxCell id="e2" style="edgeStyle=orthogonalEdgeStyle;endArrow=block;" parent="1" source="search" target="select" edge="1">
          <mxGeometry relative="1" as="geometry" />
        </mxCell>
        <mxCell id="book" value="Book the Room" style="rounded=1;whiteSpace=wrap;html=1;" parent="1" vertex="1">
          <mxGeometry x="220" y="170" width="110" height="40" as="geometry" />
        </mxCell>
        <mxCell id="e3" style="edgeStyle=orthogonalEdgeStyle;endArrow=block;" parent="1" source="select" target="book" edge="1">
          <mxGeometry relative="1" as="geometry" />
        </mxCell>
        <mxCell id="pay" value="Make Payment" style="rounded=1;whiteSpace=wrap;html=1;" parent="1" vertex="1">
          <mxGeometry x="220" y="220" width="110" height="40" as="geometry" />
        </mxCell>
        <mxCell id="e4" style="edgeStyle=orthogonalEdgeStyle;endArrow=block;" parent="1" source="book" target="pay" edge="1">
          <mxGeometry relative="1" as="geometry" />
        </mxCell>
        <mxCell id="decision1" value="" style="rhombus;whiteSpace=wrap;html=1;" parent="1" vertex="1">
          <mxGeometry x="450" y="330" width="80" height="60" as="geometry" />
        </mxCell>
        <mxCell id="e5" style="edgeStyle=orthogonalEdgeStyle;endArrow=block;" parent="1" source="pay" target="decision1" edge="1">
          <mxGeometry relative="1" as="geometry" />
        </mxCell>
        <mxCell id="confirm" value="Receive Confirmation" style="rounded=1;whiteSpace=wrap;html=1;" parent="1" vertex="1">
          <mxGeometry x="160" y="340" width="120" height="40" as="geometry" />
        </mxCell>
        <mxCell id="reqservice" value="Request Room Service" style="rounded=1;whiteSpace=wrap;html=1;" parent="1" vertex="1">
          <mxGeometry x="180" y="550" width="120" height="40" as="geometry" />
        </mxCell>
        <mxCell id="recservice" value="Receive Room Service" style="rounded=1;whiteSpace=wrap;html=1;" parent="1" vertex="1">
          <mxGeometry x="190" y="630" width="120" height="40" as="geometry" />
        </mxCell>
        <mxCell id="checkout" value="CheckOut" style="rounded=1;whiteSpace=wrap;html=1;" parent="1" vertex="1">
          <mxGeometry x="190" y="730" width="120" height="40" as="geometry" />
        </mxCell>
        <mxCell id="bill" value="Generate Bill" style="rounded=1;whiteSpace=wrap;html=1;" parent="1" vertex="1">
          <mxGeometry x="190" y="830" width="120" height="40" as="geometry" />
        </mxCell>
        <mxCell id="decision2" value="" style="rhombus;whiteSpace=wrap;html=1;" parent="1" vertex="1">
          <mxGeometry x="210" y="915" width="60" height="60" as="geometry" />
        </mxCell>
        <mxCell id="done" value="Checkout Completed" style="rounded=1;whiteSpace=wrap;html=1;" parent="1" vertex="1">
          <mxGeometry x="50" y="990" width="120" height="40" as="geometry" />
        </mxCell>
        <mxCell id="cancel" value="Booking Canceled" style="rounded=1;whiteSpace=wrap;html=1;" parent="1" vertex="1">
          <mxGeometry x="580" y="430" width="120" height="40" as="geometry" />
        </mxCell>
        <mxCell id="e14" value="Payment Failed" style="edgeStyle=orthogonalEdgeStyle;endArrow=block;" parent="1" source="decision1" target="cancel" edge="1">
          <mxGeometry relative="1" as="geometry" />
        </mxCell>
        <mxCell id="inform" value="Inform Customer" style="rounded=1;whiteSpace=wrap;html=1;" parent="1" vertex="1">
          <mxGeometry x="670" y="565" width="120" height="40" as="geometry" />
        </mxCell>
        <mxCell id="e15" style="edgeStyle=orthogonalEdgeStyle;endArrow=block;" parent="1" source="cancel" target="inform" edge="1">
          <mxGeometry relative="1" as="geometry" />
        </mxCell>
        <mxCell id="end" value="" style="ellipse;whiteSpace=wrap;html=1;aspect=fixed;fillColor=#000000;" parent="1" vertex="1">
          <mxGeometry x="640" y="930" width="30" height="30" as="geometry" />
        </mxCell>
        <mxCell id="e17" style="edgeStyle=orthogonalEdgeStyle;endArrow=block;" parent="1" source="inform" target="end" edge="1">
          <mxGeometry relative="1" as="geometry">
            <Array as="points">
              <mxPoint x="550" y="715" />
            </Array>
          </mxGeometry>
        </mxCell>
        <mxCell id="checkin" value="Check-In" style="rounded=1;whiteSpace=wrap;html=1;" parent="1" vertex="1">
          <mxGeometry x="170" y="440" width="120" height="40" as="geometry" />
        </mxCell>
        <mxCell id="WAoegKtkaC4DFqX0mCs6-10" value="" style="endArrow=classic;html=1;rounded=0;entryX=1;entryY=0.5;entryDx=0;entryDy=0;" edge="1" parent="1" source="decision1" target="confirm">
          <mxGeometry width="50" height="50" relative="1" as="geometry">
            <mxPoint x="290" y="410" as="sourcePoint" />
            <mxPoint x="340" y="360" as="targetPoint" />
          </mxGeometry>
        </mxCell>
        <mxCell id="WAoegKtkaC4DFqX0mCs6-11" value="Payment sucess" style="edgeLabel;html=1;align=center;verticalAlign=middle;resizable=0;points=[];" vertex="1" connectable="0" parent="WAoegKtkaC4DFqX0mCs6-10">
          <mxGeometry x="-0.2606" y="-3" relative="1" as="geometry">
            <mxPoint as="offset" />
          </mxGeometry>
        </mxCell>
        <mxCell id="WAoegKtkaC4DFqX0mCs6-12" value="" style="endArrow=classic;html=1;rounded=0;entryX=0.643;entryY=0.004;entryDx=0;entryDy=0;entryPerimeter=0;exitX=0.75;exitY=1;exitDx=0;exitDy=0;" edge="1" parent="1" source="confirm" target="checkin">
          <mxGeometry width="50" height="50" relative="1" as="geometry">
            <mxPoint x="200" y="460" as="sourcePoint" />
            <mxPoint x="250" y="410" as="targetPoint" />
          </mxGeometry>
        </mxCell>
        <mxCell id="WAoegKtkaC4DFqX0mCs6-13" value="" style="endArrow=classic;html=1;rounded=0;exitX=0.55;exitY=1;exitDx=0;exitDy=0;exitPerimeter=0;entryX=0.5;entryY=0;entryDx=0;entryDy=0;" edge="1" parent="1" source="checkin" target="reqservice">
          <mxGeometry width="50" height="50" relative="1" as="geometry">
            <mxPoint x="190" y="580" as="sourcePoint" />
            <mxPoint x="240" y="590" as="targetPoint" />
          </mxGeometry>
        </mxCell>
        <mxCell id="WAoegKtkaC4DFqX0mCs6-14" value="" style="endArrow=classic;html=1;rounded=0;exitX=0.579;exitY=1.004;exitDx=0;exitDy=0;exitPerimeter=0;" edge="1" parent="1" source="reqservice">
          <mxGeometry width="50" height="50" relative="1" as="geometry">
            <mxPoint x="200" y="710" as="sourcePoint" />
            <mxPoint x="250" y="630" as="targetPoint" />
          </mxGeometry>
        </mxCell>
        <mxCell id="WAoegKtkaC4DFqX0mCs6-15" value="" style="endArrow=classic;html=1;rounded=0;exitX=0.579;exitY=1.039;exitDx=0;exitDy=0;exitPerimeter=0;" edge="1" parent="1" source="recservice">
          <mxGeometry width="50" height="50" relative="1" as="geometry">
            <mxPoint x="249.6300000000001" y="749.2" as="sourcePoint" />
            <mxPoint x="259" y="730" as="targetPoint" />
          </mxGeometry>
        </mxCell>
        <mxCell id="WAoegKtkaC4DFqX0mCs6-17" value="" style="endArrow=classic;html=1;rounded=0;exitX=0.5;exitY=1;exitDx=0;exitDy=0;" edge="1" parent="1" source="checkout">
          <mxGeometry width="50" height="50" relative="1" as="geometry">
            <mxPoint x="220" y="900" as="sourcePoint" />
            <mxPoint x="250" y="830" as="targetPoint" />
          </mxGeometry>
        </mxCell>
        <mxCell id="WAoegKtkaC4DFqX0mCs6-18" value="" style="endArrow=classic;html=1;rounded=0;entryX=0.5;entryY=0;entryDx=0;entryDy=0;" edge="1" parent="1" target="decision2">
          <mxGeometry width="50" height="50" relative="1" as="geometry">
            <mxPoint x="240" y="920" as="sourcePoint" />
            <mxPoint x="290" y="920" as="targetPoint" />
            <Array as="points">
              <mxPoint x="240" y="870" />
            </Array>
          </mxGeometry>
        </mxCell>
        <mxCell id="WAoegKtkaC4DFqX0mCs6-19" value="" style="endArrow=classic;html=1;rounded=0;entryX=0.5;entryY=0;entryDx=0;entryDy=0;exitX=0;exitY=0.5;exitDx=0;exitDy=0;" edge="1" parent="1" source="decision2" target="done">
          <mxGeometry width="50" height="50" relative="1" as="geometry">
            <mxPoint x="130" y="1000" as="sourcePoint" />
            <mxPoint x="440" y="980" as="targetPoint" />
            <Array as="points">
              <mxPoint x="110" y="945" />
            </Array>
          </mxGeometry>
        </mxCell>
        <mxCell id="WAoegKtkaC4DFqX0mCs6-20" value="payment success" style="text;html=1;align=center;verticalAlign=middle;resizable=0;points=[];autosize=1;strokeColor=none;fillColor=none;" vertex="1" parent="1">
          <mxGeometry x="80" y="900" width="120" height="30" as="geometry" />
        </mxCell>
        <mxCell id="WAoegKtkaC4DFqX0mCs6-21" value="" style="endArrow=classic;html=1;rounded=0;exitX=1;exitY=0.5;exitDx=0;exitDy=0;entryX=0.5;entryY=0;entryDx=0;entryDy=0;" edge="1" parent="1" source="decision2" target="WAoegKtkaC4DFqX0mCs6-22">
          <mxGeometry width="50" height="50" relative="1" as="geometry">
            <mxPoint x="290" y="960" as="sourcePoint" />
            <mxPoint x="380" y="1012" as="targetPoint" />
            <Array as="points">
              <mxPoint x="380" y="945" />
            </Array>
          </mxGeometry>
        </mxCell>
        <mxCell id="WAoegKtkaC4DFqX0mCs6-33" value="payment failed&amp;nbsp;" style="edgeLabel;html=1;align=center;verticalAlign=middle;resizable=0;points=[];fontSize=14;" vertex="1" connectable="0" parent="WAoegKtkaC4DFqX0mCs6-21">
          <mxGeometry x="-0.113" y="4" relative="1" as="geometry">
            <mxPoint x="-4" y="-21" as="offset" />
          </mxGeometry>
        </mxCell>
        <mxCell id="WAoegKtkaC4DFqX0mCs6-22" value="Retry payment" style="rounded=1;whiteSpace=wrap;html=1;" vertex="1" parent="1">
          <mxGeometry x="320" y="980" width="120" height="40" as="geometry" />
        </mxCell>
        <mxCell id="WAoegKtkaC4DFqX0mCs6-23" value="" style="endArrow=classic;html=1;rounded=0;exitX=0.5;exitY=1;exitDx=0;exitDy=0;" edge="1" parent="1" source="WAoegKtkaC4DFqX0mCs6-22" target="WAoegKtkaC4DFqX0mCs6-30">
          <mxGeometry width="50" height="50" relative="1" as="geometry">
            <mxPoint x="320" y="1150" as="sourcePoint" />
            <mxPoint x="280" y="1080" as="targetPoint" />
            <Array as="points">
              <mxPoint x="370" y="1080" />
            </Array>
          </mxGeometry>
        </mxCell>
        <mxCell id="WAoegKtkaC4DFqX0mCs6-27" value="" style="endArrow=classic;html=1;rounded=0;exitX=0.344;exitY=0.974;exitDx=0;exitDy=0;exitPerimeter=0;entryX=0;entryY=0.5;entryDx=0;entryDy=0;" edge="1" parent="1" source="done" target="WAoegKtkaC4DFqX0mCs6-30">
          <mxGeometry width="50" height="50" relative="1" as="geometry">
            <mxPoint x="115" y="1100" as="sourcePoint" />
            <mxPoint x="160" y="1080" as="targetPoint" />
            <Array as="points">
              <mxPoint x="90" y="1080" />
            </Array>
          </mxGeometry>
        </mxCell>
        <mxCell id="WAoegKtkaC4DFqX0mCs6-30" value="" style="rhombus;whiteSpace=wrap;html=1;" vertex="1" parent="1">
          <mxGeometry x="200" y="1050" width="60" height="60" as="geometry" />
        </mxCell>
        <mxCell id="WAoegKtkaC4DFqX0mCs6-31" value="" style="endArrow=classic;html=1;rounded=0;exitX=0.5;exitY=1;exitDx=0;exitDy=0;" edge="1" parent="1" source="WAoegKtkaC4DFqX0mCs6-30">
          <mxGeometry width="50" height="50" relative="1" as="geometry">
            <mxPoint x="390" y="1090" as="sourcePoint" />
            <mxPoint x="370" y="1150" as="targetPoint" />
            <Array as="points">
              <mxPoint x="230" y="1150" />
              <mxPoint x="300" y="1150" />
            </Array>
          </mxGeometry>
        </mxCell>
        <mxCell id="WAoegKtkaC4DFqX0mCs6-32" value="" style="ellipse;whiteSpace=wrap;html=1;aspect=fixed;fillColor=#000000;" vertex="1" parent="1">
          <mxGeometry x="365" y="1130" width="30" height="30" as="geometry" />
        </mxCell>
      </root>
    </mxGraphModel>
  </diagram>
  <diagram id="D35KXl8PRszUh2dYGELv" name="Page-2">
    <mxGraphModel dx="1044" dy="634" grid="1" gridSize="10" guides="1" tooltips="1" connect="1" arrows="1" fold="1" page="1" pageScale="1" pageWidth="1100" pageHeight="850" math="0" shadow="0">
      <root>
        <mxCell id="0" />
        <mxCell id="1" parent="0" />
      </root>
    </mxGraphModel>
  </diagram>
</mxfile>
